# xmcd CD database file generated by Grip 2.96
# 
# Track frame offsets:
#       150
#       11218
#       23688
#       41548
#       50783
#       62093
#       78153
#       87863
#       102503
#       114788
#       127613
#       139901
#       156164
#       170653
#       187046
# 
# Disc length: 2675 seconds
# 
# Revision: 0
# Processed by: cddbd v1.4b42PL1 Copyright (c) Steve Scherf et al.
# Submitted via: Grip 2.96
# 
DISCID=c00a710f
DTITLE=Rod Stewart - A Little Misunderstood - The 60s Sessions
DYEAR=1900
DGENRE=
TTITLE0=Ain't That Loving You Baby
TTITLE1=Moppers Blues
TTITLE2=Don't You Tell Nobody
TTITLE3=Keep Your Hands Off Her
TTITLE4=Just Like I Treat You
TTITLE5=Can I Get A Witness
TTITLE6=Baby Take Me
TTITLE7=Bright Lights, Big City
TTITLE8=The Day Will Come
TTITLE9=Why Does It Go On
TTITLE10=Shake
TTITLE11=I Just Got Some
TTITLE12=So Much To Say
TTITLE13=Little Miss Understood
TTITLE14=Come Home Baby
EXTD=
EXTT0=
EXTT1=
EXTT2=
EXTT3=
EXTT4=
EXTT5=
EXTT6=
EXTT7=
EXTT8=
EXTT9=
EXTT10=
EXTT11=
EXTT12=
EXTT13=
EXTT14=
PLAYORDER=
